<svg xmlns="http://www.w3.org/2000/svg" viewBox="0 0 100.69 43.23"><defs><style>.cls-1{fill:#1d1d1b;}.cls-2{fill:#f4a813;}.cls-3{fill:#bdb8bd;}.cls-4{fill:#b11917;}</style></defs><title>CO_logo_cor_casa-do-concurseiro</title><g id="Layer_2" data-name="Layer 2"><g id="info"><path class="cls-1" d="M7.89,26.28l-.17,1.89a5.35,5.35,0,0,1-2.44.47,5.15,5.15,0,0,1-3.91-1.42A4.77,4.77,0,0,1,0,23.8a5.18,5.18,0,0,1,1.43-3.62,5.08,5.08,0,0,1,3.92-1.54,7.49,7.49,0,0,1,2.16.28l-.33,2a5.33,5.33,0,0,0-2-.38,2.32,2.32,0,0,0-1.88.85,3.16,3.16,0,0,0-.69,2.08,3.3,3.3,0,0,0,.82,2.27,2.92,2.92,0,0,0,2.32.93,8,8,0,0,0,2.18-.4"/><path class="cls-1" d="M14.82,26.29c0-.89-.06-1.65-.06-2.3-2.24,0-3.37.57-3.37,1.71,0,.78.5,1.17,1.49,1.17a3.15,3.15,0,0,0,1.94-.58m2.64,2.06-2.33.07a2,2,0,0,1-.16-.75h-.13a4.35,4.35,0,0,1-2.93.93,3.09,3.09,0,0,1-2.05-.68A2.29,2.29,0,0,1,9,26.09a2.94,2.94,0,0,1,1.27-2.45c.85-.64,2.33-1,4.45-1,0-.12,0-.23,0-.34a1.57,1.57,0,0,0-.51-1.4,3.62,3.62,0,0,0-1.89-.35,11,11,0,0,0-2.91.4l.22-1.82a12.09,12.09,0,0,1,3.79-.46,4.44,4.44,0,0,1,2.76.75,3.13,3.13,0,0,1,1,2.63c0,.27,0,.78,0,1.51s0,1.21,0,1.46a14.66,14.66,0,0,0,.32,3.35"/><path class="cls-1" d="M26.07,25.66q0,3-4.39,3a10.1,10.1,0,0,1-2.79-.34l.33-2a7.19,7.19,0,0,0,2.46.44,4.82,4.82,0,0,0,1.65-.19.68.68,0,0,0,.46-.66c0-.48-.56-.94-1.66-1.38A8.06,8.06,0,0,1,20,23.42a2.4,2.4,0,0,1-.9-1.89,2.59,2.59,0,0,1,1-2.11,4.42,4.42,0,0,1,2.85-.8,9.46,9.46,0,0,1,2.74.31l-.33,1.95a6.61,6.61,0,0,0-2.41-.43c-1.06,0-1.58.27-1.58.81a.8.8,0,0,0,.33.66,6.32,6.32,0,0,0,1.38.64,7.15,7.15,0,0,1,2.08,1.08,2.52,2.52,0,0,1,.93,2"/><path class="cls-1" d="M33.24,26.29c0-.89-.06-1.65-.06-2.3-2.25,0-3.37.57-3.37,1.71,0,.78.49,1.17,1.48,1.17a3.16,3.16,0,0,0,2-.58m2.63,2.06-2.33.07a2.2,2.2,0,0,1-.16-.75h-.12a4.39,4.39,0,0,1-2.94.93,3.13,3.13,0,0,1-2.05-.68,2.28,2.28,0,0,1-.81-1.83,2.92,2.92,0,0,1,1.27-2.45c.84-.64,2.33-1,4.45-1,0-.12,0-.23,0-.34a1.57,1.57,0,0,0-.52-1.4,3.6,3.6,0,0,0-1.88-.35,11,11,0,0,0-2.92.4l.22-1.82a12.13,12.13,0,0,1,3.79-.46,4.44,4.44,0,0,1,2.76.75,3.13,3.13,0,0,1,1,2.63c0,.27,0,.78,0,1.51s0,1.21,0,1.46a14.73,14.73,0,0,0,.31,3.35"/><path class="cls-2" d="M46.19,26.1c0-2.1,0-3.83-.15-5.21a2.73,2.73,0,0,0-1.63-.47,2.14,2.14,0,0,0-1.93,1,4.27,4.27,0,0,0-.63,2.37,3.72,3.72,0,0,0,.61,2.15,2,2,0,0,0,1.7.91,2.52,2.52,0,0,0,2-.71m2.48,2.25-2.34.07a3.38,3.38,0,0,1-.07-.72h-.15a4.06,4.06,0,0,1-2.77.94,3.67,3.67,0,0,1-3-1.37A5,5,0,0,1,39.21,24a6.07,6.07,0,0,1,1.21-3.77,4,4,0,0,1,3.38-1.6,3.46,3.46,0,0,1,2.1.52H46c0-1.55-.07-3.11-.22-4.69l2.79-.08c-.11,1.54-.16,3.74-.16,6.62s.07,5.36.22,7.34"/><path class="cls-2" d="M57.69,23.74a4.11,4.11,0,0,0-.67-2.4,2,2,0,0,0-1.75-1,2,2,0,0,0-1.7.91,3.74,3.74,0,0,0-.66,2.27,4.12,4.12,0,0,0,.68,2.4A2.06,2.06,0,0,0,57,26a3.86,3.86,0,0,0,.65-2.28m2.58-.29a5,5,0,0,1-1.53,3.89,5.17,5.17,0,0,1-3.6,1.4,4.88,4.88,0,0,1-3.39-1.28,4.6,4.6,0,0,1-1.41-3.6A5,5,0,0,1,51.88,20a5.18,5.18,0,0,1,3.61-1.41,4.8,4.8,0,0,1,3.37,1.29,4.65,4.65,0,0,1,1.41,3.62"/><path class="cls-1" d="M7.55,41.06,7.4,42.72a4.64,4.64,0,0,1-2.15.42,4.56,4.56,0,0,1-3.46-1.26,4.16,4.16,0,0,1-1.21-3,4.51,4.51,0,0,1,4.73-4.56,6.48,6.48,0,0,1,1.9.25l-.29,1.77A4.73,4.73,0,0,0,5.12,36a2,2,0,0,0-1.66.75,2.77,2.77,0,0,0-.61,1.83,3,3,0,0,0,.72,2,2.61,2.61,0,0,0,2.05.82,7,7,0,0,0,1.93-.35"/><path class="cls-1" d="M15,38.82a3.71,3.71,0,0,0-.59-2.13,1.8,1.8,0,0,0-1.54-.85,1.77,1.77,0,0,0-1.51.8,3.36,3.36,0,0,0-.58,2,3.59,3.59,0,0,0,.6,2.12,1.78,1.78,0,0,0,1.54.86,1.76,1.76,0,0,0,1.5-.8,3.29,3.29,0,0,0,.58-2m2.28-.26A4.43,4.43,0,0,1,16,42a4.59,4.59,0,0,1-3.18,1.24,4.3,4.3,0,0,1-3-1.13,4.07,4.07,0,0,1-1.25-3.18,4.43,4.43,0,0,1,1.36-3.45,4.58,4.58,0,0,1,3.19-1.25,4.27,4.27,0,0,1,3,1.14,4.14,4.14,0,0,1,1.24,3.2"/><path class="cls-1" d="M26.74,42.89H24.43c.12-1.47.19-3,.19-4.46a3,3,0,0,0-.41-1.86A1.49,1.49,0,0,0,23,36.08a3.06,3.06,0,0,0-1.88.68q0,3.41,0,6.13H18.8q.15-2.73.15-4.29a17.67,17.67,0,0,0-.42-3.93l2.23-.25.14.93H21a4.09,4.09,0,0,1,2.75-1,3.41,3.41,0,0,1,2.15.63,2.84,2.84,0,0,1,.8,2.33c0,.17,0,.4,0,.68s0,.57,0,.87c0,.78,0,2.13,0,4.06"/><path class="cls-1" d="M35.28,41.06l-.15,1.66a4.64,4.64,0,0,1-2.15.42,4.56,4.56,0,0,1-3.46-1.26,4.2,4.2,0,0,1-1.21-3A4.51,4.51,0,0,1,33,34.31a6.6,6.6,0,0,1,1.91.25l-.3,1.77a4.69,4.69,0,0,0-1.8-.33,2,2,0,0,0-1.66.75,2.77,2.77,0,0,0-.61,1.83,3,3,0,0,0,.72,2,2.61,2.61,0,0,0,2.05.82,7,7,0,0,0,1.93-.35"/><path class="cls-1" d="M44.42,42.88l-2,.07a3,3,0,0,1-.14-.75H42.1a4.05,4.05,0,0,1-2.67.94,2.86,2.86,0,0,1-2.16-.75,4.48,4.48,0,0,1-.73-3c0-.17,0-.43,0-.75s0-.61,0-.86c0-.64-.06-1.67-.17-3.08l2.43-.09c-.09,1.12-.14,2.17-.14,3.17A8.56,8.56,0,0,0,39,40.64a1.23,1.23,0,0,0,1.25.74A3.08,3.08,0,0,0,42,40.89c0-3,0-5.13-.1-6.22l2.35-.08c-.06,1.1-.09,2.52-.09,4.27a34.91,34.91,0,0,0,.24,4"/><path class="cls-1" d="M52,34.61l-.51,2a3.33,3.33,0,0,0-1.31-.26,1.63,1.63,0,0,0-1.69,1.15c0,2.31,0,4.1.06,5.35H46.26c.1-1.75.14-3.18.14-4.29A17.22,17.22,0,0,0,46,34.67l2.22-.25c.1.64.15,1,.15,1.13h.14a2.44,2.44,0,0,1,2.13-1.23,4.27,4.27,0,0,1,1.42.29"/><path class="cls-1" d="M59.08,40.51q0,2.61-3.87,2.61a9.08,9.08,0,0,1-2.47-.3L53,41.1a6.38,6.38,0,0,0,2.17.39,4.33,4.33,0,0,0,1.45-.17.6.6,0,0,0,.4-.59c0-.42-.48-.82-1.46-1.21a7,7,0,0,1-1.87-1,2.11,2.11,0,0,1-.8-1.66A2.3,2.3,0,0,1,53.79,35a3.92,3.92,0,0,1,2.52-.71,8.63,8.63,0,0,1,2.42.27l-.3,1.73a5.67,5.67,0,0,0-2.12-.38c-.93,0-1.4.23-1.4.71a.7.7,0,0,0,.3.59,5.42,5.42,0,0,0,1.21.56,6.54,6.54,0,0,1,1.84.95,2.27,2.27,0,0,1,.82,1.79"/><path class="cls-1" d="M66.17,37.78c0-1.34-.57-2-1.71-2s-1.73.69-1.93,2.07Zm2,.08c0,.29,0,.68,0,1.16l-5.62.09a2.6,2.6,0,0,0,.85,1.64,2.71,2.71,0,0,0,1.9.66,10.91,10.91,0,0,0,2.78-.4L67.9,42.7a8.88,8.88,0,0,1-3,.44,4.54,4.54,0,0,1-3.45-1.26,4.28,4.28,0,0,1-1.2-3.05,4.88,4.88,0,0,1,1.14-3.22,3.9,3.9,0,0,1,3.16-1.36,3.49,3.49,0,0,1,2.74,1,3.76,3.76,0,0,1,.9,2.61"/><path class="cls-1" d="M72.25,42.89H69.91q.12-1.81.12-4.14a24.14,24.14,0,0,0-.3-4.06l2.51-.26c-.07,1.13-.11,2.57-.11,4.32q0,2.23.12,4.14"/><path class="cls-1" d="M80,34.61l-.51,2a3.36,3.36,0,0,0-1.31-.26,1.63,1.63,0,0,0-1.69,1.15c0,2.31,0,4.1,0,5.35H74.21c.09-1.75.14-3.18.14-4.29a17.22,17.22,0,0,0-.43-3.93l2.22-.25c.1.64.15,1,.15,1.13h.14a2.44,2.44,0,0,1,2.13-1.23,4.27,4.27,0,0,1,1.42.29"/><path class="cls-1" d="M87.23,38.82a3.64,3.64,0,0,0-.6-2.13,1.79,1.79,0,0,0-1.54-.85,1.76,1.76,0,0,0-1.5.8,3.29,3.29,0,0,0-.58,2,3.65,3.65,0,0,0,.59,2.12,1.82,1.82,0,0,0,3.05.06,3.36,3.36,0,0,0,.58-2m2.27-.26A4.43,4.43,0,0,1,88.15,42,4.58,4.58,0,0,1,85,43.23a4.32,4.32,0,0,1-3-1.13,4.07,4.07,0,0,1-1.25-3.18,4.47,4.47,0,0,1,1.36-3.45,4.58,4.58,0,0,1,3.19-1.25,4.25,4.25,0,0,1,3,1.14,4.11,4.11,0,0,1,1.24,3.2"/><rect class="cls-1" x="69.97" y="32.02" width="2.06" height="1.76"/><path class="cls-2" d="M67.9,27.84H80.67c.78,0,1-1,1.06-1.16V16.86H85.1c-2.26-2.28-8.47-8.56-9.63-9.62a1.76,1.76,0,0,0-2.37,0L63.31,16.8h3.53v9.86A1.06,1.06,0,0,0,67.9,27.84Z"/><path class="cls-3" d="M95.39,21.61H91.45V26A3.54,3.54,0,0,1,91.06,27h0c.07.14.18.39.7.26a52.72,52.72,0,0,0,4.93-3l4-.24Z"/><path class="cls-4" d="M83.28.77a2.82,2.82,0,0,0-3.84,0l-5.12,5a2.54,2.54,0,0,1,1.8.72C77.56,7.83,86.24,16.63,86.61,17l.81.82H82.7v9A3.08,3.08,0,0,1,82.18,28h7.31c1.63,0,2-2,2-2V14.07H96.6S85.18,2.38,83.28.77Z"/></g></g></svg>