<svg xmlns="http://www.w3.org/2000/svg" viewBox="0 0 205.24 30.95"><defs><style>.cls-1{fill:#036d9b;}.cls-2{fill:#6d6d70;}.cls-3{fill:#caca27;}</style></defs><title>CO_logo_cor_coach-de-concursos</title><g id="Layer_2" data-name="Layer 2"><g id="info"><path class="cls-1" d="M49,12.9a2.4,2.4,0,0,0-1.92-.83,3,3,0,0,0-2.94,3.27A3,3,0,0,0,47,18.61a2.42,2.42,0,0,0,2.09-1.09L51,18.91a4.46,4.46,0,0,1-3.68,1.76,5.14,5.14,0,0,1-5.48-5.33A5.14,5.14,0,0,1,47.27,10a4.37,4.37,0,0,1,3.43,1.49Z"/><path class="cls-1" d="M57.1,10a5.14,5.14,0,0,1,5.48,5.34,5.14,5.14,0,0,1-5.48,5.33,5.14,5.14,0,0,1-5.48-5.33A5.14,5.14,0,0,1,57.1,10Zm0,8.61a3.06,3.06,0,0,0,3.15-3.27,3.16,3.16,0,1,0-6.31,0A3.07,3.07,0,0,0,57.1,18.61Z"/><path class="cls-1" d="M67.44,10.26h1.85l4.42,10.16H71.19l-.88-2.16H66.37l-.85,2.16H63.05Zm.86,3-1.23,3.16h2.48Z"/><path class="cls-1" d="M81.37,12.9a2.39,2.39,0,0,0-1.92-.83,3,3,0,0,0-2.94,3.27,3,3,0,0,0,2.87,3.27,2.42,2.42,0,0,0,2.09-1.09l1.87,1.39a4.46,4.46,0,0,1-3.68,1.76,5.14,5.14,0,0,1-5.48-5.33A5.14,5.14,0,0,1,79.66,10a4.37,4.37,0,0,1,3.43,1.49Z"/><path class="cls-1" d="M84.55,10.26h2.24v3.79h4.35V10.26h2.24V20.42H91.14V16H86.79v4.39H84.55Z"/><path class="cls-2" d="M95.48,10.26h3.91a4.87,4.87,0,0,1,5,5.08,4.87,4.87,0,0,1-5,5.08H95.48Zm1.21,9H99c2.33,0,4.09-1.18,4.09-4s-1.76-4-4.09-4H96.69Z"/><path class="cls-2" d="M106.3,10.26h6.38v1.12h-5.17v3.18h4.83v1.12h-4.83V19.3h5.43v1.12H106.3Z"/><path class="cls-1" d="M121.94,12.9a2.41,2.41,0,0,0-1.93-.83,3,3,0,0,0-2.94,3.27,3,3,0,0,0,2.87,3.27,2.43,2.43,0,0,0,2.1-1.09l1.86,1.39a4.43,4.43,0,0,1-3.67,1.76,5.14,5.14,0,0,1-5.48-5.33A5.14,5.14,0,0,1,120.23,10a4.38,4.38,0,0,1,3.43,1.49Z"/><path class="cls-1" d="M130.06,10a5.14,5.14,0,0,1,5.48,5.34,5.48,5.48,0,0,1-11,0A5.14,5.14,0,0,1,130.06,10Zm0,8.61a3.07,3.07,0,0,0,3.15-3.27,3.16,3.16,0,1,0-6.31,0A3.07,3.07,0,0,0,130.06,18.61Z"/><path class="cls-1" d="M137.06,10.26h3l4.31,7.06h0V10.26h2.24V20.42h-2.93l-4.43-7.23h0v7.23h-2.24V10.26Z"/><path class="cls-1" d="M155.39,12.9a2.4,2.4,0,0,0-1.92-.83,3,3,0,0,0-2.95,3.27,3,3,0,0,0,2.87,3.27,2.43,2.43,0,0,0,2.1-1.09l1.86,1.39a4.43,4.43,0,0,1-3.67,1.76,5.14,5.14,0,0,1-5.48-5.33A5.14,5.14,0,0,1,153.68,10a4.38,4.38,0,0,1,3.43,1.49Z"/><path class="cls-1" d="M167.14,16.5a4.29,4.29,0,0,1-8.57,0V10.26h2.24v6.15a2.05,2.05,0,1,0,4.09,0V10.26h2.24Z"/><path class="cls-1" d="M169.2,10.26h3.93c2.08,0,3.83.72,3.83,3.08a2.62,2.62,0,0,1-2.19,2.79l2.58,4.29h-2.68l-2.13-4.06h-1.1v4.06H169.2V10.26Zm2.24,4.2h1.32c.82,0,1.88,0,1.88-1.13s-.92-1.18-1.74-1.18h-1.46Z"/><path class="cls-1" d="M183.52,12.74a2.17,2.17,0,0,0-1.62-.67c-.63,0-1.51.28-1.51,1,0,1.85,4.68.66,4.68,4.22,0,2.27-1.82,3.34-3.92,3.34a4.81,4.81,0,0,1-3.41-1.27l1.59-1.75a2.49,2.49,0,0,0,1.95,1c.73,0,1.55-.35,1.55-1.06,0-1.87-4.76-.86-4.76-4.25,0-2.17,1.88-3.3,3.87-3.3a4.58,4.58,0,0,1,3.11,1.06Z"/><path class="cls-1" d="M191.67,10a5.14,5.14,0,0,1,5.48,5.34,5.48,5.48,0,0,1-11,0A5.14,5.14,0,0,1,191.67,10Zm0,8.61a3.07,3.07,0,0,0,3.15-3.27,3.16,3.16,0,1,0-6.31,0A3.07,3.07,0,0,0,191.67,18.61Z"/><path class="cls-1" d="M203.69,12.74a2.17,2.17,0,0,0-1.62-.67c-.64,0-1.51.28-1.51,1,0,1.85,4.68.66,4.68,4.22,0,2.27-1.83,3.34-3.92,3.34a4.8,4.8,0,0,1-3.41-1.27l1.59-1.75a2.49,2.49,0,0,0,1.95,1c.73,0,1.55-.35,1.55-1.06,0-1.87-4.76-.86-4.76-4.25,0-2.17,1.88-3.3,3.87-3.3a4.58,4.58,0,0,1,3.11,1.06Z"/><path class="cls-1" d="M15.47,0A15.48,15.48,0,1,0,31,15.47,15.47,15.47,0,0,0,15.47,0Zm7.22,24.29h-14V7.64H22.69Z"/><rect class="cls-3" x="11.11" y="9.88" width="8.83" height="1.22"/><rect class="cls-3" x="11.11" y="13.25" width="8.83" height="1.22"/><rect class="cls-3" x="11.11" y="16.62" width="8.83" height="1.22"/><rect class="cls-3" x="11.11" y="19.99" width="8.83" height="1.22"/></g></g></svg>