<svg xmlns="http://www.w3.org/2000/svg" viewBox="0 0 107.6 45.26"><defs><style>.cls-1{fill:#231f20;}.cls-2{fill:#11acc0;}.cls-3{fill:#833f91;}.cls-4{fill:#f9be2d;}.cls-5{fill:#d22d2f;}.cls-6{fill:#fff;}</style></defs><title>CO_logo_cor_estuda-que-passa</title><g id="Layer_2" data-name="Layer 2"><g id="info"><path class="cls-1" d="M6.31,12.6H2.56V10.47H5.45l0-.2a4.7,4.7,0,0,0,.09-.92,4.84,4.84,0,0,0-.09-.91l0-.2H2.56V6.58H6.21l0-.2a4.56,4.56,0,0,0,.09-.92,4.41,4.41,0,0,0-.09-.89l0-.2H0V14.81H6.31l0-.2a4.56,4.56,0,0,0,.09-.92,4.41,4.41,0,0,0-.09-.89Z"/><path class="cls-1" d="M13.56,9.46a2.94,2.94,0,0,0-.81-.6c-.29-.14-.63-.29-1-.44l-.84-.31-.42-.17a1.42,1.42,0,0,1-.32-.19A.79.79,0,0,1,10,7.51a.83.83,0,0,1-.07-.35.85.85,0,0,1,.1-.43.66.66,0,0,1,.23-.24,1.27,1.27,0,0,1,.36-.12,3.88,3.88,0,0,1,1.13,0l.53.08a4.27,4.27,0,0,1,.48.15l.59.23.1-.21A5.07,5.07,0,0,0,13.89,5l0-.19-.19-.07a12,12,0,0,0-1.35-.37,6.54,6.54,0,0,0-2.89.07A3.55,3.55,0,0,0,8.3,5a2.8,2.8,0,0,0-.76,1,3.18,3.18,0,0,0-.27,1.34,3.15,3.15,0,0,0,.16,1.08,2.35,2.35,0,0,0,.47.8,2.88,2.88,0,0,0,.71.56,5.66,5.66,0,0,0,.89.41l.86.32.49.19a1.9,1.9,0,0,1,.37.22,1.21,1.21,0,0,1,.25.3.93.93,0,0,1,.09.44.85.85,0,0,1-.4.78,2.33,2.33,0,0,1-1.26.28,4.48,4.48,0,0,1-1.06-.11,7.32,7.32,0,0,1-1.08-.34l-.24-.09-.08.24c-.11.3-.2.6-.28.9a5.73,5.73,0,0,0-.16.87l0,.19.18.07.69.24a6,6,0,0,0,.68.16,5.58,5.58,0,0,0,.73.1c.25,0,.53,0,.85,0a5.87,5.87,0,0,0,1.75-.25,3.85,3.85,0,0,0,1.3-.7A3,3,0,0,0,14,13a3.52,3.52,0,0,0,.28-1.39,3.36,3.36,0,0,0-.19-1.22A2.57,2.57,0,0,0,13.56,9.46Z"/><path class="cls-1" d="M22.28,4.37H14.75l0,.2a4.41,4.41,0,0,0-.09.89,4.56,4.56,0,0,0,.09.92l0,.2h2.48v8.2l.21,0a3.9,3.9,0,0,0,.58,0l.53,0,.51,0,.52,0,.22,0V6.58h2.48l0-.2a4.56,4.56,0,0,0,.09-.92,4.41,4.41,0,0,0-.09-.89Z"/><path class="cls-1" d="M30.55,4.31h-1L29,4.37l-.21,0V9.78a11.58,11.58,0,0,1-.07,1.42,2.47,2.47,0,0,1-.23.91,1,1,0,0,1-.42.47,2,2,0,0,1-1.55,0,.94.94,0,0,1-.43-.47,2.94,2.94,0,0,1-.23-.91c0-.39-.06-.87-.06-1.42V4.41l-.21,0L25,4.31H24l-.55.06-.21,0v5.8a10.06,10.06,0,0,0,.17,1.89A3.86,3.86,0,0,0,24,13.63a3.12,3.12,0,0,0,1.28,1,4.81,4.81,0,0,0,2,.35,4.88,4.88,0,0,0,2-.35,3,3,0,0,0,1.27-1,3.86,3.86,0,0,0,.65-1.53,9.26,9.26,0,0,0,.18-1.89V4.41l-.21,0Z"/><path class="cls-1" d="M39.92,5.57A6,6,0,0,0,35.7,4.2c-.53,0-1,0-1.46,0L33,4.37l-.22,0V14.78l.22,0c.4,0,.8.08,1.21.12s.85.05,1.34.05a6.49,6.49,0,0,0,4.36-1.3,5.09,5.09,0,0,0,1.49-4A5.33,5.33,0,0,0,39.92,5.57Zm-4,7.18h-.56V6.46H36a3.6,3.6,0,0,1,1.05.15,2.24,2.24,0,0,1,.84.49,2.37,2.37,0,0,1,.58,1,4.65,4.65,0,0,1,.23,1.57,4.94,4.94,0,0,1-.22,1.59,2.57,2.57,0,0,1-.59.94,1.86,1.86,0,0,1-.86.47A4.62,4.62,0,0,1,35.9,12.75Z"/><path class="cls-1" d="M47.19,4.37l-.61-.06a7.74,7.74,0,0,0-1.18,0l-.58.06-.15,0L41.33,14.76l.28.05a6.37,6.37,0,0,0,2.09,0l.15,0,.57-2h3l.55,2,.16,0a7.73,7.73,0,0,0,1.08.08,9.46,9.46,0,0,0,1.17-.08l.29,0L47.35,4.39Zm-.4,6.28H45.05l.89-3Z"/><path class="cls-1" d="M71.15,4.31h-1l-.56.06-.21,0V9.78c0,.55,0,1-.06,1.42a2.94,2.94,0,0,1-.23.91,1,1,0,0,1-.43.47,1.64,1.64,0,0,1-.77.16,1.74,1.74,0,0,1-.78-.16,1,1,0,0,1-.43-.47,2.94,2.94,0,0,1-.23-.91c0-.39-.06-.87-.06-1.42V4.41l-.21,0-.55-.06h-1L64,4.37l-.21,0v5.8A9.26,9.26,0,0,0,64,12.1a3.86,3.86,0,0,0,.65,1.53,3,3,0,0,0,1.27,1,5.69,5.69,0,0,0,3.93,0,3.15,3.15,0,0,0,1.27-1,3.86,3.86,0,0,0,.65-1.53,10.06,10.06,0,0,0,.17-1.89V4.41l-.21,0Z"/><path class="cls-1" d="M79.67,12.8l0-.2H75.88V10.47h2.89l0-.2a4.7,4.7,0,0,0,.09-.92,4.84,4.84,0,0,0-.09-.91l0-.2H75.88V6.58h3.65l0-.2a4.56,4.56,0,0,0,.09-.92,4.41,4.41,0,0,0-.09-.89l0-.2H73.32V14.81h6.31l0-.2a4.56,4.56,0,0,0,.09-.92A4.41,4.41,0,0,0,79.67,12.8Z"/><path class="cls-1" d="M61.82,13.42a5.1,5.1,0,0,0,.84-1.7,7.81,7.81,0,0,0,.27-2.11,8,8,0,0,0-.27-2.12,4.93,4.93,0,0,0-.84-1.72,3.86,3.86,0,0,0-1.46-1.15,4.83,4.83,0,0,0-2.08-.42,4.76,4.76,0,0,0-2.08.42,3.86,3.86,0,0,0-1.46,1.15,4.77,4.77,0,0,0-.84,1.72,7.94,7.94,0,0,0-.27,2.12,7.81,7.81,0,0,0,.27,2.11,4.75,4.75,0,0,0,.84,1.7,4,4,0,0,0,1.46,1.15,5.15,5.15,0,0,0,3.28.27,6.72,6.72,0,0,0,2.15,1.78l.13.06.11-.08a2.21,2.21,0,0,0,.89-1.69v-.18l-.17-.06A4.18,4.18,0,0,1,61.25,14,3.84,3.84,0,0,0,61.82,13.42Zm-1.6-3.81c0,2.14-.64,3.18-1.94,3.18s-2-1-2-3.18.65-3.18,2-3.18a1.53,1.53,0,0,1,1.43.74A4.73,4.73,0,0,1,60.22,9.61Z"/><path class="cls-1" d="M87,45.26A14.25,14.25,0,0,1,84.65,45V.71c.48-.07.92-.12,1.31-.16S86.7.5,87,.5s.68,0,1.08.05.84.09,1.3.16V45A14.54,14.54,0,0,1,87,45.26Z"/><path class="cls-1" d="M60.11,31.2a6.44,6.44,0,0,0-1.63-1.12c-.64-.3-1.35-.61-2.14-.91L55,28.67A5.67,5.67,0,0,1,53.7,28a1.26,1.26,0,0,1-.53-1.14,1.37,1.37,0,0,1,.19-.75,1.53,1.53,0,0,1,.53-.48,2.62,2.62,0,0,1,.73-.25,4.94,4.94,0,0,1,.87-.08,8.21,8.21,0,0,1,2.46.32c.66.21,1.24.42,1.73.61a11.61,11.61,0,0,0,.75-1.92,11.8,11.8,0,0,0,.41-1.87A24.18,24.18,0,0,0,58,21.71a14.19,14.19,0,0,0-2.79-.27,10.17,10.17,0,0,0-2.92.39A6.13,6.13,0,0,0,50,23,5.27,5.27,0,0,0,48.6,24.8a5.83,5.83,0,0,0-.51,2.49,5.5,5.5,0,0,0,.33,2,4.66,4.66,0,0,0,.92,1.49,5.76,5.76,0,0,0,1.43,1.13,10.55,10.55,0,0,0,1.86.82l1.58.55.73.28a3.23,3.23,0,0,1,.63.36,1.64,1.64,0,0,1,.46.52,1.47,1.47,0,0,1,.17.72,1.45,1.45,0,0,1-.81,1.42,5.11,5.11,0,0,1-2.25.41,12.3,12.3,0,0,1-4.54-1.06c-.26.73-.49,1.44-.68,2.13a14.68,14.68,0,0,0-.39,2,20.9,20.9,0,0,0,2.9.82,16.78,16.78,0,0,0,3.1.26A11.83,11.83,0,0,0,57,40.67a7.23,7.23,0,0,0,2.5-1.24A5.33,5.33,0,0,0,61,37.5,5.9,5.9,0,0,0,61.52,35a5.81,5.81,0,0,0-.37-2.21A4.32,4.32,0,0,0,60.11,31.2Z"/><path class="cls-1" d="M14.16,28.19a6.82,6.82,0,0,0-.77-3.44,5.47,5.47,0,0,0-2-2.05,7.84,7.84,0,0,0-2.76-1,17.41,17.41,0,0,0-3-.27,31.29,31.29,0,0,0-3.38.15l-2,.22v18.9A15.75,15.75,0,0,0,2.68,41c.34,0,.71,0,1.11-.05s.84-.1,1.33-.19V34.55a7.8,7.8,0,0,0,.78.09c.37,0,.73,0,1.09,0a11.11,11.11,0,0,0,2.65-.32,6.25,6.25,0,0,0,2.29-1.06,5.31,5.31,0,0,0,1.62-2A7.18,7.18,0,0,0,14.16,28.19Zm-5.87,2a2.88,2.88,0,0,1-2,.67c-.25,0-.48,0-.71,0a1.86,1.86,0,0,1-.48-.08V25.41l.45,0H6a5.11,5.11,0,0,1,1.19.13,2.51,2.51,0,0,1,1,.46,2.26,2.26,0,0,1,.67.87,3.34,3.34,0,0,1,.24,1.34A2.51,2.51,0,0,1,8.29,30.2Z"/><path class="cls-1" d="M44.7,31.2a6.44,6.44,0,0,0-1.63-1.12c-.64-.3-1.35-.61-2.14-.91l-1.36-.5A5.67,5.67,0,0,1,38.29,28a1.27,1.27,0,0,1-.54-1.14,1.37,1.37,0,0,1,.2-.75,1.53,1.53,0,0,1,.53-.48,2.62,2.62,0,0,1,.73-.25,4.94,4.94,0,0,1,.87-.08,8.21,8.21,0,0,1,2.46.32c.66.21,1.24.42,1.73.61A11.61,11.61,0,0,0,45,24.34a11.8,11.8,0,0,0,.41-1.87,24.18,24.18,0,0,0-2.87-.76,14.19,14.19,0,0,0-2.79-.27,10.17,10.17,0,0,0-2.92.39A6.26,6.26,0,0,0,34.62,23a5.36,5.36,0,0,0-1.43,1.84,5.83,5.83,0,0,0-.51,2.49,5.5,5.5,0,0,0,.33,2,4.66,4.66,0,0,0,.92,1.49,5.76,5.76,0,0,0,1.43,1.13,10.55,10.55,0,0,0,1.86.82l1.58.55.73.28a3.23,3.23,0,0,1,.63.36,1.64,1.64,0,0,1,.46.52,1.47,1.47,0,0,1,.17.72A1.45,1.45,0,0,1,40,36.57a5.11,5.11,0,0,1-2.25.41,12.3,12.3,0,0,1-4.54-1.06c-.26.73-.49,1.44-.68,2.13a13.27,13.27,0,0,0-.39,2,20.9,20.9,0,0,0,2.9.82,16.78,16.78,0,0,0,3.1.26,11.83,11.83,0,0,0,3.42-.44A7.23,7.23,0,0,0,44,39.43a5.33,5.33,0,0,0,1.55-1.93A5.9,5.9,0,0,0,46.11,35a5.81,5.81,0,0,0-.37-2.21A4.32,4.32,0,0,0,44.7,31.2Z"/><path class="cls-1" d="M23.43,21.65c-.42,0-.81,0-1.17,0s-.86,0-1.29,0l-1.37.14-6.35,18.9c.55.09,1,.15,1.49.2s.83.06,1.17.06.69,0,1.05-.05.76-.09,1.19-.16l1-3.64H25l1,3.64c.43.07.84.12,1.22.16s.75.05,1.13.05a19.49,19.49,0,0,0,2.83-.24L24.89,21.79Zm-3.25,12,1.94-6.84L24,33.6Z"/><path class="cls-1" d="M72.08,21.65c-.43,0-.82,0-1.18,0s-.86,0-1.29,0l-1.37.14-6.35,18.9c.55.09,1,.15,1.49.2s.84.06,1.18.06.69,0,1-.05.75-.09,1.19-.16l1-3.64h5.78l1,3.64c.44.07.84.12,1.22.16S76.59,41,77,41a19.6,19.6,0,0,0,2.83-.24L73.54,21.79Zm-3.26,12,1.94-6.84,1.89,6.84Z"/><circle class="cls-2" cx="101.61" cy="6" r="5.5"/><circle class="cls-3" cx="101.61" cy="17" r="5.5"/><circle class="cls-4" cx="101.61" cy="28" r="5.5"/><circle class="cls-5" cx="101.61" cy="39" r="5.5"/><g id="_Group_" data-name="&lt;Group&gt;"><polygon class="cls-6" points="102.98 6 100.67 7.34 100.67 4.65 102.98 6"/><polygon class="cls-6" points="102.98 17 100.67 18.34 100.67 15.65 102.98 17"/><polygon class="cls-6" points="102.98 38.99 100.67 40.34 100.67 37.65 102.98 38.99"/><polygon class="cls-6" points="102.98 28 100.67 29.34 100.67 26.65 102.98 28"/><path class="cls-1" d="M100.67,29.34,103,28l-2.31-1.35Zm-1-4.42L104.94,28l-5.26,3.07Z"/><path class="cls-1" d="M100.67,40.34,103,39l-2.31-1.34Zm-1-4.42L104.94,39l-5.26,3.08Z"/><path class="cls-1" d="M100.67,7.34,103,6l-2.31-1.35Zm-1-4.42L104.94,6,99.68,9.07Z"/><path class="cls-1" d="M100.67,18.34,103,17l-2.31-1.35Zm-1-4.42L104.94,17l-5.26,3.07Z"/><path class="cls-1" d="M106.61,39a5,5,0,1,0-5,5A5,5,0,0,0,106.61,39Zm0-11a5,5,0,1,0-5,5A5,5,0,0,0,106.61,28Zm0-11a5,5,0,1,0-5,5A5,5,0,0,0,106.61,17Zm0-11a5,5,0,1,0-5,5A5,5,0,0,0,106.61,6Zm1,33a6,6,0,1,1-8.38-5.49,6,6,0,0,1,0-11,6,6,0,0,1,0-11,6,6,0,1,1,4.77,0,6,6,0,0,1,0,11,6,6,0,0,1,0,11A6,6,0,0,1,107.6,39Z"/></g></g></g></svg>