<svg xmlns="http://www.w3.org/2000/svg" viewBox="0 0 187.91 17.16"><defs><style>.cls-1{fill:#022e49;}</style></defs><title>CO_logo_cor_folha-dirigida</title><g id="Layer_2" data-name="Layer 2"><g id="info"><path class="cls-1" d="M10.4,10.67H5V16.9H0V.26H12v4H5V6.93H10.4Z"/><path class="cls-1" d="M20.58,17.16a7.54,7.54,0,0,1-5.72-2.33A8.65,8.65,0,0,1,12.64,8.6a9.08,9.08,0,0,1,2.12-6.17A7.38,7.38,0,0,1,20.63,0,7.48,7.48,0,0,1,26.3,2.29a8.5,8.5,0,0,1,2.19,6.13,9,9,0,0,1-2.21,6.35A7.41,7.41,0,0,1,20.58,17.16Zm0-3.78a1.94,1.94,0,0,0,1.86-1.13A10.22,10.22,0,0,0,23,8.12q0-4.33-2.33-4.34c-1.68,0-2.51,1.65-2.51,5Q18.15,13.38,20.56,13.38Z"/><path class="cls-1" d="M42.19,12.82V16.9H30.52V.26h5.11V12.82Z"/><path class="cls-1" d="M58,.26V16.9H52.86V10.43H49V16.9H43.85V.26H49V6.38h3.9V.26Z"/><path class="cls-1" d="M69.92,16.9,69,13.62H64.52l-1,3.28H59.37L64.51.26h5.4L75.13,16.9ZM65.39,10h2.69L66.73,5.16Z"/><path class="cls-1" d="M82.66,16.9V.26H89.1q4.2,0,6.28,2.48A8.71,8.71,0,0,1,97.47,8.5a8.42,8.42,0,0,1-2.24,6.07,7.67,7.67,0,0,1-5.81,2.33Zm5.11-3.83H89.1a2.55,2.55,0,0,0,2.14-1.23,5.71,5.71,0,0,0,.88-3.35,6.07,6.07,0,0,0-.78-3.14A2.47,2.47,0,0,0,89.1,4H87.77Z"/><path class="cls-1" d="M104.61.26V16.9H99.5V.26Z"/><path class="cls-1" d="M122.21,16.9h-5.66l-2.44-6.36H112.5V16.9h-5.11V.26h8.7a6.76,6.76,0,0,1,4.47,1.34,4.45,4.45,0,0,1,1.59,3.56,5.32,5.32,0,0,1-.59,2.54,4.87,4.87,0,0,1-2.36,2ZM112.5,7h2.19a2.65,2.65,0,0,0,1.54-.41,1.33,1.33,0,0,0,.59-1.18c0-1.06-.65-1.6-2-1.6H112.5Z"/><path class="cls-1" d="M129.61.26V16.9H124.5V.26Z"/><path class="cls-1" d="M146.77,7.57V16.9h-2.5a9.92,9.92,0,0,0-.67-1.74,5.45,5.45,0,0,1-4.59,2,6.88,6.88,0,0,1-5.29-2.25,8.65,8.65,0,0,1-2.07-6.09,9.82,9.82,0,0,1,2-6.28,7.16,7.16,0,0,1,6-2.54,7.26,7.26,0,0,1,4.8,1.51,7.14,7.14,0,0,1,2.35,4.3l-5,.48c-.25-1.73-1-2.59-2.28-2.59Q137,3.7,137,8.48q0,2.88.81,3.81a2.52,2.52,0,0,0,1.95.92,2.37,2.37,0,0,0,1.58-.56,2,2,0,0,0,.66-1.54h-2.75V7.57Z"/><path class="cls-1" d="M154.45.26V16.9h-5.11V.26Z"/><path class="cls-1" d="M157.23,16.9V.26h6.44c2.79,0,4.89.83,6.28,2.48A8.7,8.7,0,0,1,172,8.5a8.42,8.42,0,0,1-2.23,6.07A7.69,7.69,0,0,1,164,16.9Zm5.11-3.83h1.33a2.57,2.57,0,0,0,2.14-1.23,5.71,5.71,0,0,0,.87-3.35,6.17,6.17,0,0,0-.77-3.14A2.48,2.48,0,0,0,163.67,4h-1.33Z"/><path class="cls-1" d="M182.7,16.9l-.94-3.28H177.3l-1,3.28h-4.15L177.29.26h5.4l5.22,16.64ZM178.17,10h2.69l-1.35-4.83Z"/></g></g></svg>