<svg xmlns="http://www.w3.org/2000/svg" viewBox="0 0 120.86 43.84"><defs><style>.cls-1{fill:#143b7d;}</style></defs><title>CO_logo_cor_hotel-urbano</title><g id="Layer_2" data-name="Layer 2"><g id="info"><polygon class="cls-1" points="63.09 19.5 63.09 14.29 57.76 14.29 57.76 19.5 54.39 19.5 54.39 6.37 57.76 6.37 57.76 11.47 63.09 11.47 63.09 6.37 66.46 6.37 66.46 19.5 63.09 19.5"/><rect class="cls-1" x="99.42" y="6.24" width="3.29" height="13.27"/><path class="cls-1" d="M65.57,34.64a4.69,4.69,0,0,1-1.17,1.78,4.77,4.77,0,0,1-1.85,1.06,8.57,8.57,0,0,1-4.78,0,4.85,4.85,0,0,1-1.85-1,4.35,4.35,0,0,1-1.19-1.67,6,6,0,0,1-.43-2.39V24.37h3.35V32a3.53,3.53,0,0,0,.62,2.25,2.38,2.38,0,0,0,1.95.75A2.3,2.3,0,0,0,62,34.34a3.3,3.3,0,0,0,.61-2.21V24.37H66v7.78a6.69,6.69,0,0,1-.42,2.49"/><path class="cls-1" d="M82.92,32.68a3.25,3.25,0,0,0-.52-2,1.76,1.76,0,0,0-1.52-.7,2,2,0,0,0-.92.19,3,3,0,0,0-.71.48V35a2.61,2.61,0,0,0,1.49.4,1.91,1.91,0,0,0,1.61-.75,3.13,3.13,0,0,0,.57-2m3.28-.17a5.94,5.94,0,0,1-.39,2.2,5,5,0,0,1-1.07,1.67,4.73,4.73,0,0,1-1.58,1.06,4.87,4.87,0,0,1-1.9.37,6,6,0,0,1-1.11-.12A8.14,8.14,0,0,1,79,37.41L76,37.83V24.25h3.29l0,4.5a5.62,5.62,0,0,1,1.14-.91A3,3,0,0,1,82,27.42a4,4,0,0,1,1.69.36,3.79,3.79,0,0,1,1.33,1,5.2,5.2,0,0,1,.87,1.6,6.59,6.59,0,0,1,.31,2.11"/><path class="cls-1" d="M93.29,33.51a2.79,2.79,0,0,0-2.14.15,1,1,0,0,0-.62,1,.93.93,0,0,0,.34.77,1.34,1.34,0,0,0,.89.28,2.06,2.06,0,0,0,.88-.17,1.87,1.87,0,0,0,.65-.48Zm0,2.83a6.53,6.53,0,0,1-1.18,1,2.9,2.9,0,0,1-1.66.44,3.31,3.31,0,0,1-1.19-.21,2.9,2.9,0,0,1-1-.58,2.7,2.7,0,0,1-.63-.86,2.38,2.38,0,0,1-.23-1.06,3.05,3.05,0,0,1,.28-1.31,2.71,2.71,0,0,1,1-1.07,5.83,5.83,0,0,1,1.8-.76,5.57,5.57,0,0,1,2.78.18v-.7a1.42,1.42,0,0,0-.42-1.14A2,2,0,0,0,91.55,30a5.11,5.11,0,0,0-1.62.28,13.93,13.93,0,0,0-1.73.7l-.68-2.37a11.85,11.85,0,0,1,2-.79,8.47,8.47,0,0,1,2.58-.37,6.92,6.92,0,0,1,2.14.29,3.29,3.29,0,0,1,1.4.83,3.12,3.12,0,0,1,.75,1.33,6,6,0,0,1,.2,1.82l0,2.9q0,.51.15.63a1.26,1.26,0,0,0,.66.17L97,37.7a4.65,4.65,0,0,1-2.46-.18,2.25,2.25,0,0,1-1.19-1.18Z"/><path class="cls-1" d="M105.25,37.51V31.73a1.6,1.6,0,0,0-.37-1.22,1.45,1.45,0,0,0-1-.33,2.22,2.22,0,0,0-1,.22,3.06,3.06,0,0,0-.76.51v6.6H98.82v-10h3.29l0,1.59a5.54,5.54,0,0,1,1.49-1.2,3.6,3.6,0,0,1,1.8-.48,3,3,0,0,1,2.32.9,3.44,3.44,0,0,1,.84,2.47v6.72Z"/><path class="cls-1" d="M117.61,32.63a3.34,3.34,0,0,0-.52-2,1.94,1.94,0,0,0-3.06,0,3.46,3.46,0,0,0-.51,2,3.34,3.34,0,0,0,.52,2,1.78,1.78,0,0,0,1.54.72,1.73,1.73,0,0,0,1.52-.73,3.45,3.45,0,0,0,.51-2m3.25,0a5.33,5.33,0,0,1-.43,2.2,4.87,4.87,0,0,1-1.14,1.65,5,5,0,0,1-1.7,1,5.94,5.94,0,0,1-2.08.36,6.06,6.06,0,0,1-2.06-.34,4.41,4.41,0,0,1-1.67-1,4.6,4.6,0,0,1-1.1-1.63,5.64,5.64,0,0,1-.4-2.2,5.56,5.56,0,0,1,.41-2.22,4.73,4.73,0,0,1,1.14-1.65,4.93,4.93,0,0,1,1.71-1,6.25,6.25,0,0,1,2.1-.35,6.09,6.09,0,0,1,2.08.35,4.61,4.61,0,0,1,2.75,2.63,5.74,5.74,0,0,1,.39,2.19"/><path class="cls-1" d="M74.41,27.56a3.43,3.43,0,0,0-1-.14,2.65,2.65,0,0,0-2.37,1.52V27.51H67.79v10h3.29V31.82c.72-1.65,2.89-1.4,3.33-1.32Z"/><path class="cls-1" d="M23.48,43.84C6.9,43.84-.64,32.16,0,14.77c0-1.29,1.17-1.7,3.22-1.7s3.5.27,3.43,1.7c-.41,13.86,3.84,22.69,16.79,22.69s17.34-9,16.79-22.69c-.07-1.43,1.51-1.7,3.43-1.7s3.22.41,3.22,1.7c.68,17.59-7,29.07-23.44,29.07"/><path class="cls-1" d="M13,11.55l.07,10.08c0,1.45,1.46,1.87,3.14,1.8,2.16-.07,3.48-.55,3.34-2-.23-2.42-.44-4.73-.6-7,1.3,0,2.66-.06,4.5-.06s3.19.1,4.43.17c-.17,2.28-.38,4.56-.6,6.94-.14,1.45,1.18,1.93,3.34,2,1.67.07,3.14-.35,3.14-1.8l.07-10.08c.21-4.07.55-6.14,1-9.32C35,.85,33.86.16,31.63,0c-1.88-.13-3.41.28-3.41,1.73.07,2.68.05,5.17,0,7.59a90.94,90.94,0,0,1-9.49,0c-.08-2.42-.1-4.91,0-7.58C18.67.3,17.14-.11,15.26,0c-2.23.14-3.34.83-3.2,2.21.42,3.18.76,5.25,1,9.32"/><path class="cls-1" d="M75.49,14.62a3.42,3.42,0,0,0-.51-2,1.76,1.76,0,0,0-1.54-.75,1.73,1.73,0,0,0-1.53.75,3.46,3.46,0,0,0-.51,2,3.3,3.3,0,0,0,.52,2,1.78,1.78,0,0,0,1.54.72A1.74,1.74,0,0,0,75,16.61a3.45,3.45,0,0,0,.5-2m3.25,0a5.48,5.48,0,0,1-.42,2.19,5,5,0,0,1-1.15,1.65,5,5,0,0,1-1.7,1,5.94,5.94,0,0,1-2.08.36,6.06,6.06,0,0,1-2.06-.34,4.52,4.52,0,0,1-1.67-1,4.93,4.93,0,0,1-1.1-1.63,5.69,5.69,0,0,1-.4-2.21,5.56,5.56,0,0,1,.41-2.22,4.77,4.77,0,0,1,2.85-2.67,6.25,6.25,0,0,1,2.1-.35,6.09,6.09,0,0,1,2.08.35,4.75,4.75,0,0,1,1.66,1,4.63,4.63,0,0,1,1.09,1.62,5.8,5.8,0,0,1,.39,2.2"/><path class="cls-1" d="M85.79,19.73a7.93,7.93,0,0,1-1.28.09A4.09,4.09,0,0,1,81.74,19a3.24,3.24,0,0,1-.86-2.73L81,12.55H79.55l.06-2.8h1.48l0-2.23H84.3l0,2.33h2.46l-.07,2.55H84l-.1,3.51a1.12,1.12,0,0,0,.31,1,1.49,1.49,0,0,0,1,.3,2.83,2.83,0,0,0,.63-.07c.21-.05.44-.11.66-.18l.39,2.52c-.39.11-.76.2-1.12.27"/><path class="cls-1" d="M94.54,13.7v-.19a2.21,2.21,0,0,0-.37-1.37,1.34,1.34,0,0,0-1.14-.5,1.61,1.61,0,0,0-1.33.62,2.68,2.68,0,0,0-.57,1.46ZM91.1,15.38a2.13,2.13,0,0,0,.75,1.53,2.84,2.84,0,0,0,1.86.53,5.35,5.35,0,0,0,1.65-.26,7.93,7.93,0,0,0,1.58-.68l.32,2.5a7.18,7.18,0,0,1-1.75.59,10.29,10.29,0,0,1-2.09.21,7,7,0,0,1-2.27-.34,4.66,4.66,0,0,1-1.74-1,4.49,4.49,0,0,1-1.12-1.6,5.76,5.76,0,0,1-.39-2.18,5.87,5.87,0,0,1,.39-2.18,4.8,4.8,0,0,1,1.11-1.66,5.05,5.05,0,0,1,1.69-1.06,6.05,6.05,0,0,1,2.16-.38,4.28,4.28,0,0,1,3.21,1.14,4.05,4.05,0,0,1,1.11,3,7.65,7.65,0,0,1,0,.91,4.4,4.4,0,0,1-.16.82l-6.26.1Z"/></g></g></svg>