<svg xmlns="http://www.w3.org/2000/svg" viewBox="0 0 66.54 63.3"><defs><style>.cls-1{fill:#121f36;}</style></defs><title>CO_logo_cor_ias</title><g id="Layer_2" data-name="Layer 2"><g id="info"><path class="cls-1" d="M32.92,28c-.16-.43-.47-1.21-.92-2.34s-.78-1.9-1-2.31c-.25.6-.47,1.14-.65,1.64l-.58,1.51-2.28,6.24c-.31.88-.52,1.44-.63,1.67a21.75,21.75,0,0,0,3.53.26l1.86,0c1.12,0,2.12,0,3-.08-.47-1.46-.77-2.32-.9-2.6ZM0,0V63.3H66.54V0ZM51.77,41.93a6,6,0,0,1-2.33,2.6,7.11,7.11,0,0,1-3.81,1,11.48,11.48,0,0,1-1.3-.08v0a31.67,31.67,0,0,0-3.17-.17c-.8,0-1.54,0-2.23.07l-1.64.11-.9.08v-.71a5.5,5.5,0,0,0,1.47-.44,1,1,0,0,0,.56-.94,6.68,6.68,0,0,0-.36-1.79c-.25-.78-.43-1.32-.55-1.62L36,35.74a30.14,30.14,0,0,0-3.8-.17H30.65a19.37,19.37,0,0,0-4.2.26L25,39.77a12.55,12.55,0,0,0-1,3.09,1.53,1.53,0,0,0,.63,1.24,6.09,6.09,0,0,0,2.58.8v.7a32.4,32.4,0,0,0-4-.3c-1,0-2,.05-3.07.13v0H20l-.4,0v0l-.28,0-1.34,0-1.06,0h-2l-1.22,0-1.37,0-.74,0,0-.81a5.08,5.08,0,0,0,2.26-.53,2.07,2.07,0,0,0,.81-1.3,22,22,0,0,0,.4-4.35c.06-2.14.08-4.39.08-6.76,0-2.14-.05-5.21-.15-9.23a11.29,11.29,0,0,0-.24-2.37,1.6,1.6,0,0,0-.87-1.05,5,5,0,0,0-2.11-.36v-.92l2.19.17Q15.49,18,16,18l1.62-.09,2.68-.17v1a5.83,5.83,0,0,0-1.86.2,1.4,1.4,0,0,0-.74.8c-.35.9-.52,4.31-.52,10.25q0,6.14,0,7.77c0,1.08,0,2.25.05,3.48a12.07,12.07,0,0,0,.18,2.11,1.33,1.33,0,0,0,.76.93,5.15,5.15,0,0,0,2,.33h0a3.37,3.37,0,0,0,1.2-.78,8.1,8.1,0,0,0,1.28-2.12c.52-1.12,1.06-2.33,1.6-3.64s.93-2.34,1.18-3.08l3.21-8.15c.4-1,.81-2,1.23-3.08s.82-2.15,1.19-3.22.65-1.95.83-2.6a.59.59,0,0,1,.12-.41l.66,0c.42,1.58.87,3.09,1.37,4.54l4.2,12q1.62,4.5,2.46,6.63c.3.77.57,1.42.83,1.95a12.33,12.33,0,0,0,2.08,1.12,6.9,6.9,0,0,0,2.84.58,4.78,4.78,0,0,0,2.65-.89c.88-.6,1.32-1.91,1.32-3.94a8.27,8.27,0,0,0-.38-2.64,5,5,0,0,0-1-1.79,7.18,7.18,0,0,0-1.46-1.21c-.56-.36-1.27-.76-2.15-1.22a16.65,16.65,0,0,1-3-1.87,6.91,6.91,0,0,1-1.89-2.36,7.6,7.6,0,0,1-.7-3.43,8.26,8.26,0,0,1,1.72-5.36,6,6,0,0,1,4.93-2.14,11.28,11.28,0,0,1,3.21.47,4,4,0,0,0,.8.17,1.4,1.4,0,0,0,.93-.42l.12-.09a.74.74,0,0,1,.31.09c0,.32-.06.65-.08,1s-.05.67-.08,1.05,0,.68-.05.89,0,.36,0,.43c.14,1.72.2,2.65.19,2.81l-.47,0a6.24,6.24,0,0,0-1-3.41,4.72,4.72,0,0,0-2.06-1.7A6,6,0,0,0,46,18.33c-1.72,0-2.85.61-3.41,1.84a8.52,8.52,0,0,0-.83,3.48,6,6,0,0,0,.62,2.86A5.15,5.15,0,0,0,44,28.3a24.72,24.72,0,0,0,2.6,1.53,23.65,23.65,0,0,1,3,1.89,7.7,7.7,0,0,1,2.06,2.49,8.24,8.24,0,0,1,.9,4A8.45,8.45,0,0,1,51.77,41.93Z"/></g></g></svg>