<svg xmlns="http://www.w3.org/2000/svg" viewBox="0 0 30.73 19.59"><defs><style>.cls-1{fill:#6d6a6d;}</style></defs><title>CO_checkout_cartao_HEX-6D6A6D</title><g id="Layer_2" data-name="Layer 2"><g id="info"><path class="cls-1" d="M27.1,0H3.63A3.64,3.64,0,0,0,0,3.63V16a3.64,3.64,0,0,0,3.63,3.63H27.1A3.64,3.64,0,0,0,30.73,16V3.63A3.64,3.64,0,0,0,27.1,0ZM2.29,5.37V3.63A1.34,1.34,0,0,1,3.63,2.29H27.1a1.34,1.34,0,0,1,1.34,1.34V5.37ZM3.63,17.3A1.34,1.34,0,0,1,2.29,16V9.18H28.44V16A1.34,1.34,0,0,1,27.1,17.3Z"/></g></g></svg>